# xmcd CD database file
#
# Track frame offsets:
#	150
#	28312
#	56357
#	83747
#	110840
#	126545
#	147767
#	174190
#	196900
#	220747
#	239557
#
# Disc length: 3666 seconds
#
# Revision: 0
# Processed by: cddbd v1.5.1PL0 Copyright (c) Steve Scherf et al.
# Submitted via: ACXtractor (MTCDDB.DLL V2003.12.21)
#
DISCID=9e0e500b
DTITLE=Danny Vincent - Blues at Close Range
DYEAR=1997
DGENRE=Blues
TTITLE0=I Wonder
TTITLE1=She Can't
TTITLE2=My Babe Left This Morning
TTITLE3=The Rhythm of the Cities
TTITLE4=New Orleans
TTITLE5=Hey Man
TTITLE6=A Long Run
TTITLE7=I Can See Clearly Now
TTITLE8=Solidao no Bixiga
TTITLE9=Friend's Shuffle
TTITLE10=Last Night
EXTD=ID3G:   0 YEAR: 1997
EXTT0=
EXTT1=
EXTT2=
EXTT3=
EXTT4=
EXTT5=
EXTT6=
EXTT7=
EXTT8=
EXTT9=
EXTT10=
PLAYORDER=
